# xmcd CD database file
#
# Track frame offsets:
#	150
#	13953
#	24436
#	43033
#	56275
#	69088
#	81338
#	97284
#	109403
#	121661
#	134502
#	146163
#	168757
#	180557
#	202598
#	221512
#	234958
#	252077
#	264925
#	275401
#	287685
#
# Disc length: 4015 seconds
#
# Revision: 0
# Processed by: cddbd v1.5.2PL0 Copyright (c) Steve Scherf et al.
# Submitted via: CDex 2.17
#
DISCID=250fad15
DTITLE=Ella Fitzgerald - Ella Swings Brightly With Nelson [2017 Remaster]
DYEAR=1962
DGENRE=Jazz
TTITLE0=Little Jazz
TTITLE1=You Brought A New Kind Of Love To Me
TTITLE2=Knock Me A Kiss
TTITLE3=720 In The Books
TTITLE4=Rough Ridin'
TTITLE5=Broadway
TTITLE6=You Can Depend On Me
TTITLE7=Runnin' Wild
TTITLE8=Show Me The Way To get Out Of This World
TTITLE9=I'll Always Be In Love With You
TTITLE10=Hallelujah, I Love Him So
TTITLE11=I Can't Face The Music
TTITLE12=No Moon At All
TTITLE13=Laughin' On The Outside
TTITLE14=After You've Gone
TTITLE15=When Your Lover Has Gone
TTITLE16=Don't Be That Way
TTITLE17=Love Me Or Leave Me
TTITLE18=I Hear Music
TTITLE19=What Am I Hear For
TTITLE20=I'm Gonna Go Fishin'
EXTD=YEAR: 1962
EXTT0=
EXTT1=
EXTT2=
EXTT3=
EXTT4=
EXTT5=
EXTT6=
EXTT7=
EXTT8=
EXTT9=
EXTT10=
EXTT11=
EXTT12=
EXTT13=
EXTT14=
EXTT15=
EXTT16=
EXTT17=
EXTT18=
EXTT19=
EXTT20=
PLAYORDER=
